<svg width="54" height="54" viewBox="0 0 54 54" fill="none" xmlns="http://www.w3.org/2000/svg">
<path d="M36.53 21.0441H17.4712C16.1555 21.0441 15.0889 22.1107 15.0889 23.4265V35.3382C15.0889 36.654 16.1555 37.7206 17.4712 37.7206H36.53C37.8458 37.7206 38.9124 36.654 38.9124 35.3382V23.4265C38.9124 22.1107 37.8458 21.0441 36.53 21.0441Z" stroke="#43454F" stroke-width="2" stroke-linecap="round" stroke-linejoin="round"/>
<path d="M31.7657 37.7206V18.6618C31.7657 18.0299 31.5147 17.424 31.068 16.9772C30.6212 16.5304 30.0152 16.2794 29.3834 16.2794H24.6187C23.9868 16.2794 23.3809 16.5304 22.9341 16.9772C22.4873 17.424 22.2363 18.0299 22.2363 18.6618V37.7206" stroke="#43454F" stroke-width="2" stroke-linecap="round" stroke-linejoin="round"/>
<circle opacity="0.4" cx="27" cy="27" r="26" stroke="#43454F" stroke-width="2"/>
</svg>
