<svg width="17" height="21" viewBox="0 0 17 21" fill="none" xmlns="http://www.w3.org/2000/svg">
<path fill-rule="evenodd" clip-rule="evenodd" d="M8.03488 21.0003C12.4724 21.0003 16.0698 17.4029 16.0698 12.9654C16.0698 9.92563 14.3818 7.28013 11.892 5.91512C10.7586 5.12619 10.8948 3.97715 11.0309 3.29623C11.1671 2.61531 11.7119 0.0278026 11.7119 0.0278026C11.7119 0.0278026 8.85199 -0.380751 7.08159 1.93442C6.44752 2.74962 6.29544 3.89244 6.26469 4.56641V8.06282C6.26469 8.73973 5.71595 9.28848 5.03903 9.28848C4.36212 9.28848 3.81337 8.73973 3.81337 8.06282V6.12754C1.52473 7.5435 0 10.0764 0 12.9654C0 17.4029 3.59734 21.0003 8.03488 21.0003Z" fill="#E54225"/>
<circle cx="7.95117" cy="15.333" r="5.5" fill="#FEB61D"/>
<circle cx="7.85742" cy="17.1465" r="3.5" fill="#FFDA9F"/>
</svg>
